# xmcd
#
# Track frame offsets:
#	150
#	11899
#	26564
#	41280
#	56841
#	71455
#	85507
#	99139
#	111886
#	124133
#	135738
#	147661
#	162653
#	175472
#	189398
#	202365
#	211963
#
# Disc length: 2961 seconds
#
# Revision: 5
# Processed by: cddbd v1.5.2PL0 Copyright (c) Steve Scherf et al.
# Submitted via: EZCDAudioConverter 2.1.7.1
#
DISCID=fb0b8f11
DTITLE=V/A - Trojan Rare Groove 3/3
DYEAR=1999
DGENRE=
TTITLE0=Earl Flute and Horace Andy - Peter And Judas
TTITLE1=Jerry Lewis - Rhythm Pleasure
TTITLE2=Aggrovators - Doctor Seaton
TTITLE3=I-Roy - High Jacking
TTITLE4=Simplicity People - The Murderer
TTITLE5=K.C. White - Anywhere But Nowhere
TTITLE6=Simplicity People - Nowhere
TTITLE7=Augustus Pablo - Cowtown Skank [Version 2]
TTITLE8=I-Roy - Clappers Tail
TTITLE9=Eternals - Pity The Children
TTITLE10=Delroy Wilson - Trying To Wreck My Life
TTITLE11=Cornel Campbell - Girl Of My Dreams
TTITLE12=Bongo Herman and Bingy Bunny - Ration
TTITLE13=I-Roy - Great Great Great
TTITLE14=Rupie Edwards All Stars - Great Great Great Version
TTITLE15=Keith Hudson - Melody Maker
TTITLE16=Big Youth - Can You Keep A Secret
EXTD=
EXTT0=
EXTT1=
EXTT2=
EXTT3=
EXTT4=
EXTT5=
EXTT6=
EXTT7=
EXTT8=
EXTT9=
EXTT10=
EXTT11=
EXTT12=
EXTT13=
EXTT14=
EXTT15=
EXTT16=
PLAYORDER=
